# xmcd CD database file
#
# Track frame offsets:
#	150
#	31425
#	62422
#	92775
#	120345
#	149157
#	175425
#
# Disc length: 2701 seconds
#
# Revision: 2
# Processed by: cddbd v1.5.2PL0 Copyright (c) Steve Scherf et al.
# Submitted via: CDex 1.70beta3
#
DISCID=600a8b07
DTITLE=The Great Jazz Trio - Love For Sale
DYEAR=1976
DGENRE=Jazz
TTITLE0=Love For Sale
TTITLE1=Glad To Be Unhappy
TTITLE2=Gee Baby, Ain't I Good To You
TTITLE3=Secret Love
TTITLE4=Someone To Watch Over Me
TTITLE5=Autumn Leaves 
TTITLE6=Tenderly
EXTD=YEAR: 1976
EXTT0=
EXTT1=
EXTT2=
EXTT3=
EXTT4=
EXTT5=
EXTT6=
PLAYORDER=
